<?xml version="1.0" encoding="utf-8"?>
<!-- Generator: Adobe Illustrator 16.0.0, SVG Export Plug-In . SVG Version: 6.00 Build 0)  -->
<!DOCTYPE svg PUBLIC "-//W3C//DTD SVG 1.1//EN" "http://www.w3.org/Graphics/SVG/1.1/DTD/svg11.dtd">
<svg version="1.1" id="Layer_1" xmlns="http://www.w3.org/2000/svg" xmlns:xlink="http://www.w3.org/1999/xlink" x="0px" y="0px"
	 width="1312px" height="268.918px" viewBox="0 0 1312 268.918" enable-background="new 0 0 1312 268.918" xml:space="preserve">
<g id="F">
	<g>
		<line fill="none" stroke="#000000" stroke-width="3" stroke-miterlimit="10" x1="25.616" y1="26.067" x2="25.616" y2="258.874"/>
		<line fill="none" stroke="#000000" stroke-width="3" stroke-miterlimit="10" x1="25.107" y1="26.573" x2="123.833" y2="26.573"/>
		<line fill="none" stroke="#000000" stroke-width="3" stroke-miterlimit="10" x1="25.107" y1="86.293" x2="73.961" y2="86.293"/>
		<line fill="none" stroke="#000000" stroke-width="3" stroke-miterlimit="10" x1="19.509" y1="21.006" x2="19.509" y2="258.874"/>
		<line fill="none" stroke="#000000" stroke-width="3" stroke-miterlimit="10" x1="31.723" y1="26.067" x2="31.723" y2="258.874"/>
		<line fill="none" stroke="#000000" stroke-width="3" stroke-miterlimit="10" x1="19" y1="20.5" x2="123.833" y2="20.5"/>
		<line fill="none" stroke="#000000" stroke-width="3" stroke-miterlimit="10" x1="25.107" y1="32.646" x2="123.833" y2="32.646"/>
		<line fill="none" stroke="#000000" stroke-width="3" stroke-miterlimit="10" x1="25.107" y1="91.354" x2="73.961" y2="91.354"/>
		<line fill="none" stroke="#000000" stroke-width="3" stroke-miterlimit="10" x1="25.107" y1="80.22" x2="73.961" y2="80.22"/>
	</g>
</g>
<g id="T">
	<line fill="none" stroke="#000000" stroke-width="3" stroke-miterlimit="10" x1="420.917" y1="25.383" x2="420.917" y2="258.715"/>
	<line fill="none" stroke="#000000" stroke-width="3" stroke-miterlimit="10" x1="373.893" y1="25.888" x2="474.143" y2="25.888"/>
	<line fill="none" stroke="#000000" stroke-width="3" stroke-miterlimit="10" x1="427.119" y1="32.454" x2="427.119" y2="258.715"/>
	<line fill="none" stroke="#000000" stroke-width="3" stroke-miterlimit="10" x1="426.602" y1="31.949" x2="474.143" y2="31.949"/>
	<line fill="none" stroke="#000000" stroke-width="3" stroke-miterlimit="10" x1="373.893" y1="20.838" x2="474.143" y2="20.838"/>
	<line fill="none" stroke="#000000" stroke-width="3" stroke-miterlimit="10" x1="414.716" y1="26.394" x2="414.716" y2="258.715"/>
	<line fill="none" stroke="#000000" stroke-width="3" stroke-miterlimit="10" x1="373.893" y1="31.949" x2="421.434" y2="31.949"/>
</g>
<g id="I">
	<g>
		<line fill="none" stroke="#000000" stroke-width="3" stroke-miterlimit="10" x1="189.5" y1="26.043" x2="189.5" y2="251.792"/>
		<line fill="none" stroke="#000000" stroke-width="3" stroke-miterlimit="10" x1="141" y1="25.539" x2="238" y2="25.539"/>
		<line fill="none" stroke="#000000" stroke-width="3" stroke-miterlimit="10" x1="183.5" y1="32.09" x2="183.5" y2="245.745"/>
		<line fill="none" stroke="#000000" stroke-width="3" stroke-miterlimit="10" x1="195.5" y1="32.09" x2="195.5" y2="244.737"/>
		<line fill="none" stroke="#000000" stroke-width="3" stroke-miterlimit="10" x1="141" y1="20.5" x2="238" y2="20.5"/>
		<line fill="none" stroke="#000000" stroke-width="3" stroke-miterlimit="10" x1="141" y1="31.586" x2="238" y2="31.586"/>
		<line fill="none" stroke="#000000" stroke-width="3" stroke-miterlimit="10" x1="141" y1="251.288" x2="238" y2="251.288"/>
		<line fill="none" stroke="#000000" stroke-width="3" stroke-miterlimit="10" x1="141" y1="245.241" x2="238" y2="245.241"/>
		<line fill="none" stroke="#000000" stroke-width="3" stroke-miterlimit="10" x1="141" y1="257.334" x2="238" y2="257.334"/>
	</g>
</g>
<g id="N">
	<g>
		
			<line fill="none" stroke="#000000" stroke-width="3" stroke-miterlimit="10" x1="261.577" y1="18.588" x2="261.577" y2="258.584"/>
		
			<line fill="none" stroke="#000000" stroke-width="3" stroke-miterlimit="10" x1="255.489" y1="18.588" x2="255.489" y2="258.584"/>
		
			<line fill="none" stroke="#000000" stroke-width="3" stroke-miterlimit="10" x1="261.675" y1="19.041" x2="346.699" y2="258.458"/>
		
			<line fill="none" stroke="#000000" stroke-width="3" stroke-miterlimit="10" x1="346.805" y1="258.584" x2="346.805" y2="18.588"/>
		
			<line fill="none" stroke="#000000" stroke-width="3" stroke-miterlimit="10" x1="352.893" y1="258.584" x2="352.893" y2="18.588"/>
		<polyline fill="none" stroke="#000000" stroke-width="3" stroke-miterlimit="10" points="267.665,18.672 340.717,225.049 
			340.717,18.588 		"/>
		<polyline fill="none" stroke="#000000" stroke-width="3" stroke-miterlimit="10" points="340.21,258.584 267.665,52.293 
			267.665,258.584 		"/>
	</g>
</g>
<g id="N_2_1_">
	<g>
		<line fill="none" stroke="#000000" stroke-width="3" stroke-miterlimit="10" x1="580.8" y1="18.588" x2="580.8" y2="258.213"/>
		
			<line fill="none" stroke="#000000" stroke-width="3" stroke-miterlimit="10" x1="574.582" y1="18.588" x2="574.582" y2="258.213"/>
		
			<line fill="none" stroke="#000000" stroke-width="3" stroke-miterlimit="10" x1="580.904" y1="19.041" x2="667.763" y2="258.086"/>
		
			<line fill="none" stroke="#000000" stroke-width="3" stroke-miterlimit="10" x1="667.871" y1="258.213" x2="667.871" y2="18.588"/>
		
			<line fill="none" stroke="#000000" stroke-width="3" stroke-miterlimit="10" x1="674.089" y1="258.213" x2="674.089" y2="18.588"/>
		<polyline fill="none" stroke="#000000" stroke-width="3" stroke-miterlimit="10" points="587.02,18.673 661.651,224.73 
			661.651,18.588 		"/>
		<polyline fill="none" stroke="#000000" stroke-width="3" stroke-miterlimit="10" points="661.132,258.213 587.02,52.241 
			587.02,258.213 		"/>
	</g>
</g>
<g id="GUIDES" display="none">
</g>
<g id="A">
	<polyline fill="none" stroke="#000000" stroke-width="3" stroke-miterlimit="10" points="550.333,258.338 502.291,22.338 
		453.248,258.338 	"/>
	<polyline fill="none" stroke="#000000" stroke-width="3" stroke-miterlimit="10" points="510.666,94.338 502.023,49.61 
		493.199,94.338 	"/>
	<line fill="none" stroke="#000000" stroke-width="3" stroke-miterlimit="10" x1="493.583" y1="93.838" x2="510.583" y2="93.838"/>
	<line fill="none" stroke="#000000" stroke-width="3" stroke-miterlimit="10" x1="493.001" y1="99.629" x2="459.751" y2="258.338"/>
	<polyline fill="none" stroke="#000000" stroke-width="3" stroke-miterlimit="10" points="543.833,258.338 511.293,99.838 
		511.583,99.838 492.583,99.838 	"/>
	<line fill="none" stroke="#000000" stroke-width="3" stroke-miterlimit="10" x1="497.421" y1="19.838" x2="447.443" y2="258.338"/>
	<line fill="none" stroke="#000000" stroke-width="3" stroke-miterlimit="10" x1="507.333" y1="19.838" x2="556.718" y2="258.213"/>
</g>
<g id="N_1_">
	<g>
		
			<line fill="none" stroke="#FFE600" stroke-width="3" stroke-miterlimit="10" x1="619.651" y1="-293.017" x2="619.651" y2="-57.017"/>
		
			<line fill="none" stroke="#FFE600" stroke-width="3" stroke-miterlimit="10" x1="613.651" y1="-293.017" x2="613.651" y2="-57.017"/>
		
			<line fill="none" stroke="#FFE600" stroke-width="3" stroke-miterlimit="10" x1="619.751" y1="-292.571" x2="703.548" y2="-57.142"/>
		
			<line fill="none" stroke="#FFE600" stroke-width="3" stroke-miterlimit="10" x1="703.651" y1="-57.017" x2="703.651" y2="-293.017"/>
		
			<line fill="none" stroke="#FFE600" stroke-width="3" stroke-miterlimit="10" x1="709.651" y1="-57.017" x2="709.651" y2="-293.017"/>
		<polyline fill="none" stroke="#FFE600" stroke-width="3" stroke-miterlimit="10" points="625.651,-292.934 697.651,-89.993 
			697.651,-293.017 		"/>
		<polyline fill="none" stroke="#FFE600" stroke-width="3" stroke-miterlimit="10" points="697.151,-57.017 625.651,-259.873 
			625.651,-57.017 		"/>
	</g>
</g>
<g id="N_2_2_">
	<g>
		
			<line fill="none" stroke="#000000" stroke-width="3" stroke-miterlimit="10" x1="1184.435" y1="19.362" x2="1184.435" y2="258.987"/>
		
			<line fill="none" stroke="#000000" stroke-width="3" stroke-miterlimit="10" x1="1178.216" y1="19.362" x2="1178.216" y2="258.987"/>
		
			<line fill="none" stroke="#000000" stroke-width="3" stroke-miterlimit="10" x1="1184.538" y1="19.815" x2="1271.397" y2="258.86"/>
		
			<line fill="none" stroke="#000000" stroke-width="3" stroke-miterlimit="10" x1="1271.505" y1="258.987" x2="1271.505" y2="19.362"/>
		
			<line fill="none" stroke="#000000" stroke-width="3" stroke-miterlimit="10" x1="1277.724" y1="258.987" x2="1277.724" y2="19.362"/>
		<polyline fill="none" stroke="#000000" stroke-width="3" stroke-miterlimit="10" points="1190.653,19.448 1265.284,225.504 
			1265.284,19.362 		"/>
		<polyline fill="none" stroke="#000000" stroke-width="3" stroke-miterlimit="10" points="1264.767,258.987 1190.653,53.015 
			1190.653,258.987 		"/>
	</g>
</g>
<g id="A_1_">
	<polyline fill="none" stroke="#000000" stroke-width="3" stroke-miterlimit="10" points="1153.968,259.112 1105.925,23.112 
		1056.881,259.112 	"/>
	<polyline fill="none" stroke="#000000" stroke-width="3" stroke-miterlimit="10" points="1114.3,95.112 1105.657,50.385 
		1096.833,95.112 	"/>
	
		<line fill="none" stroke="#000000" stroke-width="3" stroke-miterlimit="10" x1="1097.218" y1="94.612" x2="1114.218" y2="94.612"/>
	
		<line fill="none" stroke="#000000" stroke-width="3" stroke-miterlimit="10" x1="1096.636" y1="100.403" x2="1063.386" y2="259.112"/>
	<polyline fill="none" stroke="#000000" stroke-width="3" stroke-miterlimit="10" points="1147.468,259.112 1114.927,100.612 
		1115.218,100.612 1096.218,100.612 	"/>
	
		<line fill="none" stroke="#000000" stroke-width="3" stroke-miterlimit="10" x1="1101.056" y1="20.612" x2="1051.076" y2="259.112"/>
	
		<line fill="none" stroke="#000000" stroke-width="3" stroke-miterlimit="10" x1="1110.968" y1="20.612" x2="1160.353" y2="258.987"/>
</g>
<g>
	
		<line fill="none" stroke="#000000" stroke-width="3" stroke-miterlimit="10" x1="1078.343" y1="19.503" x2="971.883" y2="246.094"/>
	
		<line fill="none" stroke="#000000" stroke-width="3" stroke-miterlimit="10" x1="1084.737" y1="19.503" x2="971.883" y2="258.104"/>
	
		<line fill="none" stroke="#000000" stroke-width="3" stroke-miterlimit="10" x1="1072.747" y1="19.503" x2="971.883" y2="234.008"/>
	
		<line fill="none" stroke="#000000" stroke-width="3" stroke-miterlimit="10" x1="978.385" y1="19.503" x2="1028.398" y2="125.807"/>
	
		<line fill="none" stroke="#000000" stroke-width="3" stroke-miterlimit="10" x1="983.766" y1="19.503" x2="1028.582" y2="113.333"/>
	
		<line fill="none" stroke="#000000" stroke-width="3" stroke-miterlimit="10" x1="972.396" y1="19.503" x2="1028.398" y2="137.416"/>
</g>
<g>
	<ellipse fill="none" stroke="#000000" stroke-width="3" stroke-miterlimit="10" cx="888.039" cy="70.927" rx="50.889" ry="50.22"/>
	<ellipse fill="none" stroke="#000000" stroke-width="3" stroke-miterlimit="10" cx="888.35" cy="71.233" rx="43.729" ry="43.154"/>
	<ellipse fill="none" stroke="#000000" stroke-width="3" stroke-miterlimit="10" cx="888.771" cy="70.751" rx="36.622" ry="36.14"/>
	<line fill="none" stroke="#000000" stroke-width="3" stroke-miterlimit="10" x1="843.803" y1="95.597" x2="843.803" y2="259.137"/>
	<path fill="none" stroke="#000000" stroke-width="3" stroke-miterlimit="10" d="M837.664,78.597v180.54V78.597z"/>
	
		<line fill="none" stroke="#000000" stroke-width="3" stroke-miterlimit="10" x1="850.963" y1="104.683" x2="850.963" y2="259.137"/>
	
		<line fill="none" stroke="#000000" stroke-width="3" stroke-miterlimit="10" x1="850.945" y1="105.309" x2="941.787" y2="259.137"/>
	<line fill="none" stroke="#000000" stroke-width="3" stroke-miterlimit="10" x1="850.68" y1="93.165" x2="948.445" y2="259.137"/>
	<line fill="none" stroke="#000000" stroke-width="3" stroke-miterlimit="10" x1="857.803" y1="90.055" x2="956.055" y2="259.137"/>
</g>
</svg>
